<svg width="22" height="22" viewBox="0 0 22 22" fill="none" xmlns="http://www.w3.org/2000/svg">
<g id="Frame 60">
<path id="Vector" fill-rule="evenodd" clip-rule="evenodd" d="M16.6651 4.12465C15.7301 4.06965 13.8051 4.01465 10.8901 4.01465H10.5051C7.70013 4.01465 5.83016 4.06965 4.89516 4.17965C3.63016 4.28965 2.75013 4.61965 2.25513 5.05965C1.81513 5.44465 1.48514 6.15965 1.37514 7.09465C1.32014 7.69965 1.26514 8.96465 1.26514 10.8896V11.1646C1.26514 12.9796 1.32013 14.2446 1.43013 14.8496C1.59513 15.7296 1.87016 16.3896 2.42016 16.7746C2.97016 17.2146 3.90514 17.4896 5.22514 17.5996C6.16014 17.6546 8.08514 17.7096 11.0001 17.7096H11.3852C14.1902 17.7096 16.0602 17.6546 16.9952 17.5446C18.2602 17.4346 19.1402 17.1046 19.6352 16.6646C20.0752 16.2796 20.4051 15.5646 20.5151 14.6296C20.5701 14.0246 20.6251 12.7596 20.6251 10.8346V10.5596C20.6251 8.74465 20.5702 7.47965 20.4602 6.87465C20.2952 5.99465 20.0202 5.33465 19.4702 4.94965C18.9202 4.50965 17.9851 4.23465 16.6651 4.12465ZM14.5202 10.8896L8.47016 14.5196V7.25965L14.5202 10.8896Z" fill="#F6F5EF"/>
</g>
</svg>
