<svg xmlns="http://www.w3.org/2000/svg" aria-hidden="true" style="position:absolute;width:0;height:0;overflow:hidden">
    <>
        <symbol id="icon-arrow1" viewBox="0 0 32 32">
            <path d="M22.222 8.889 32 16l-9.778 7.111v-5.879H0v-2.463h22.222V8.89z" />
        </symbol>
        <symbol id="icon-arrow2" viewBox="0 0 32 32">
            <path d="M9.778 8.889 0 16l9.778 7.111v-5.879H32v-2.463H9.778V8.89z" />
        </symbol>
        <symbol id="icon-facebook" viewBox="0 0 32 32">
            <path
                d="M18.425 10.801h1.462V8.328a20.221 20.221 0 0 0-2.131-.109c-2.116 0-3.562 1.291-3.562 3.656v2.038h-2.388v2.769h2.388v7.093h2.862v-7.093h2.38l.358-2.769h-2.738v-1.766c0-.817.218-1.346 1.369-1.346z" />
            <path stroke-width=".8"
                d="M4.8.4h22.4a4.4 4.4 0 0 1 4.4 4.4v22.4a4.4 4.4 0 0 1-4.4 4.4H4.8a4.4 4.4 0 0 1-4.4-4.4V4.8A4.4 4.4 0 0 1 4.8.4z" />
        </symbol>
        <symbol id="icon-instagram" viewBox="0 0 32 32">
            <path
                d="M19.991 11.115a.902.902 0 0 0-.828.553.892.892 0 0 0 .194.977.892.892 0 0 0 .977.194.895.895 0 0 0-.343-1.724zm3.435 1.807a5.646 5.646 0 0 0-.343-1.814 3.69 3.69 0 0 0-.866-1.322 3.518 3.518 0 0 0-1.322-.859 5.462 5.462 0 0 0-1.814-.351c-.791-.045-1.045-.045-3.076-.045s-2.285 0-3.076.045a5.462 5.462 0 0 0-1.814.351 3.57 3.57 0 0 0-1.322.859c-.383.37-.676.822-.859 1.322a5.462 5.462 0 0 0-.351 1.814c-.045.791-.045 1.045-.045 3.076s0 2.285.045 3.076c.013.62.132 1.234.351 1.814.182.5.476.952.859 1.322a3.57 3.57 0 0 0 1.322.859c.58.219 1.194.338 1.814.351.791.045 1.045.045 3.076.045s2.285 0 3.076-.045a5.462 5.462 0 0 0 1.814-.351c.5-.182.952-.476 1.322-.859.382-.371.678-.823.866-1.322a5.65 5.65 0 0 0 .343-1.814c0-.791.045-1.045.045-3.076s0-2.285-.045-3.076zm-1.344 6.063a4.167 4.167 0 0 1-.254 1.389 2.286 2.286 0 0 1-.56.859 2.373 2.373 0 0 1-.859.56 4.193 4.193 0 0 1-1.389.254c-.747.037-1.023.045-2.987.045s-2.24 0-2.987-.045a4.3 4.3 0 0 1-1.449-.224 2.433 2.433 0 0 1-.821-.56 2.245 2.245 0 0 1-.553-.859 4.164 4.164 0 0 1-.299-1.419c0-.747-.045-1.023-.045-2.987s0-2.24.045-2.987a4.14 4.14 0 0 1 .261-1.419 2.24 2.24 0 0 1 .59-.821c.227-.257.507-.461.821-.597a4.29 4.29 0 0 1 1.419-.254c.747 0 1.023-.045 2.987-.045s2.24 0 2.987.045c.474.005.944.091 1.389.254.339.126.644.331.889.597.245.229.436.51.56.821.166.455.252.935.254 1.419.037.747.045 1.023.045 2.987s-.007 2.24-.045 2.987zm-6.078-6.817a3.826 3.826 0 0 0-3.534 2.37 3.824 3.824 0 0 0 .835 4.171 3.83 3.83 0 0 0 6.246-4.18 3.831 3.831 0 0 0-3.547-2.362zm0 6.316a2.487 2.487 0 1 1 .003-4.975 2.487 2.487 0 0 1-.004 4.976z" />
            <path stroke-width=".8"
                d="M4.8.4h22.4a4.4 4.4 0 0 1 4.4 4.4v22.4a4.4 4.4 0 0 1-4.4 4.4H4.8a4.4 4.4 0 0 1-4.4-4.4V4.8A4.4 4.4 0 0 1 4.8.4z" />
        </symbol>
        <symbol id="icon-youtube1" viewBox="0 0 32 32">
            <path
                d="M24.24 6c-1.36-.08-4.16-.16-8.4-.16h-.56c-4.08 0-6.8.08-8.16.24-1.84.16-3.12.64-3.84 1.28-.64.56-1.12 1.6-1.28 2.96-.08.88-.16 2.72-.16 5.52v.4c0 2.64.08 4.48.24 5.36.24 1.28.64 2.24 1.44 2.8.8.64 2.16 1.04 4.08 1.2 1.36.08 4.16.16 8.4.16h.56c4.08 0 6.8-.08 8.16-.24 1.84-.16 3.12-.64 3.84-1.28.64-.56 1.12-1.6 1.28-2.96.08-.88.16-2.72.16-5.52v-.4c0-2.64-.08-4.48-.24-5.36-.24-1.28-.64-2.24-1.44-2.8-.8-.64-2.16-1.04-4.08-1.2zm-3.12 9.839-8.8 5.28v-10.56l8.8 5.28z" />
        </symbol>
        <symbol id="icon-yacht" viewBox="0 0 32 32">
            <path d="M0 0h32v32H0V0z" />
        </symbol>
        <symbol id="icon-youtube" viewBox="0 0 32 32">
            <path fill="red"
                d="M31.327 8.273a4.026 4.026 0 0 0-2.756-2.777l-.028-.007c-2.493-.668-12.528-.668-12.528-.668s-10.009-.013-12.528.668A4.026 4.026 0 0 0 .71 8.245l-.007.028C.26 10.554.007 13.176.007 15.858v.163-.008.126c0 2.682.253 5.304.737 7.845l-.041-.26a4.026 4.026 0 0 0 2.756 2.777l.028.007c2.491.669 12.528.669 12.528.669s10.008 0 12.528-.669a4.026 4.026 0 0 0 2.777-2.756l.007-.028c.425-2.233.668-4.803.668-7.429l-.001-.297v.015l.001-.31c0-2.626-.243-5.196-.708-7.687l.04.258zM12.812 20.801V11.21l8.352 4.803z"
                style="fill:var(--color1, #f00)" />
        </symbol>
        <symbol id="icon-close" viewBox="0 0 32 32">
            <path stroke-linecap="round" stroke-linejoin="round" stroke-width="1.733" d="M24 8 8 24M8 8l16 16" />
        </symbol>
        <symbol id="icon-burger" viewBox="0 0 46 32">
            <path
                d="M0 2.274A2.274 2.274 0 0 1 2.274 0h18.309a2.275 2.275 0 0 1 1.608 3.882 2.275 2.275 0 0 1-1.608.666H2.274A2.275 2.275 0 0 1 0 2.274zM0 16a2.274 2.274 0 0 1 2.274-2.274H43.44a2.275 2.275 0 0 1 1.608 3.882 2.275 2.275 0 0 1-1.608.666H2.274A2.275 2.275 0 0 1 0 16zm2.274 11.451a2.275 2.275 0 0 0-1.608 3.882 2.275 2.275 0 0 0 1.608.666h27.451a2.275 2.275 0 0 0 1.608-3.882 2.275 2.275 0 0 0-1.608-.666H2.274z" />
        </symbol>
        <symbol id="icon-boat-logo" viewBox="0 0 28 32">
            <path
                d="M13.109 0h.195c.477 0 .864.387.864.864V21.83h-1.922V.864c0-.477.387-.864.864-.864zM10.281 8.832v10.156H2.02c-.432 0-.655-.794-.306-1.045 3.464-2.431 6.327-5.468 8.493-8.98l.075-.131zM16.091 3.706v14.725a24.12 24.12 0 0 1 3.095-.193c1.9 0 3.75.212 5.528.615l-.167-.032.036.001a.738.738 0 0 0 .729-.855l.001.004c-.858-6.04-4.295-11.138-9.141-14.217l-.082-.049zM.028 23.739h27.835v1.797H.028v-1.797zM0 27.417c.488.85.947 1.741 1.393 2.675a3.695 3.695 0 0 0 2.105 1.762l.026.007L3.9 32h15.687a12.23 12.23 0 0 0 7.614-4.556l.021-.028S0 27.486 0 27.416z" />
        </symbol>
    </defs>
</svg>

<!-- Header icons -->
<svg aria-hidden="true" style="position: absolute; width: 0; height: 0; overflow: hidden;" version="1.1" xmlns="http://www.w3.org/2000/svg" xmlns:xlink="http://www.w3.org/1999/xlink">
<defs>
<symbol id="icon-yacht-Adventures" viewBox="0 0 397 32">
<path d="M9.166 29.44v-9.562l-9.024-17.318h5.568l5.952 12.403 5.914-12.403h5.491l-8.986 17.318v9.562h-4.915z"></path>
<path d="M22.528 29.44l9.83-26.88h5.53l9.83 26.88h-5.222l-2.15-6.221h-10.483l-2.189 6.221h-5.146zM31.206 19.379h7.795l-3.917-11.174-3.878 11.174z"></path>
<path d="M62.968 29.901c-2.714 0-5.043-0.576-6.989-1.728-1.946-1.178-3.443-2.803-4.493-4.877-1.050-2.099-1.574-4.518-1.574-7.258s0.525-5.158 1.574-7.258c1.050-2.099 2.547-3.738 4.493-4.915s4.275-1.766 6.989-1.766c3.226 0 5.862 0.806 7.91 2.419 2.074 1.587 3.366 3.827 3.878 6.72h-5.414c-0.333-1.459-1.050-2.598-2.15-3.418-1.075-0.845-2.509-1.267-4.301-1.267-2.483 0-4.429 0.845-5.837 2.534s-2.112 4.006-2.112 6.95c0 2.944 0.704 5.261 2.112 6.95 1.408 1.664 3.354 2.496 5.837 2.496 1.792 0 3.226-0.384 4.301-1.152 1.101-0.794 1.818-1.882 2.15-3.264h5.414c-0.512 2.765-1.805 4.928-3.878 6.49-2.048 1.562-4.685 2.342-7.91 2.342z"></path>
<path d="M80.26 29.44v-26.88h4.915v11.174h12.058v-11.174h4.915v26.88h-4.915v-11.712h-12.058v11.712h-4.915z"></path>
<path d="M114.783 29.44v-22.925h-7.834v-3.955h20.621v3.955h-7.872v22.925h-4.915z"></path>
<path d="M140.938 29.44l9.83-26.88h5.53l9.83 26.88h-5.222l-2.15-6.221h-10.483l-2.189 6.221h-5.146zM149.616 19.379h7.795l-3.917-11.174-3.878 11.174z"></path>
<path d="M170.743 29.44v-26.88h9.178c3.149 0 5.734 0.563 7.757 1.69 2.048 1.101 3.558 2.662 4.531 4.685 0.998 1.997 1.498 4.352 1.498 7.066s-0.499 5.082-1.498 7.104c-0.973 1.997-2.483 3.558-4.531 4.685-2.022 1.101-4.608 1.651-7.757 1.651h-9.178zM175.658 25.216h4.032c2.253 0 4.032-0.358 5.338-1.075 1.306-0.742 2.24-1.792 2.803-3.149 0.563-1.382 0.845-3.046 0.845-4.992 0-1.92-0.282-3.571-0.845-4.954s-1.498-2.445-2.803-3.187c-1.306-0.742-3.085-1.114-5.338-1.114h-4.032v18.47z"></path>
<path d="M206.090 29.44l-9.83-26.88h5.261l7.603 21.85 7.642-21.85h5.184l-9.831 26.88h-6.029z"></path>
<path d="M226.298 29.44v-26.88h17.549v3.955h-12.634v7.373h11.482v3.84h-11.482v7.757h12.634v3.955h-17.549z"></path>
<path d="M249.649 29.44v-26.88h4.915l12.634 18.931v-18.931h4.915v26.88h-4.915l-12.634-18.893v18.893h-4.915z"></path>
<path d="M284.734 29.44v-22.925h-7.834v-3.955h20.621v3.955h-7.872v22.925h-4.915z"></path>
<path d="M312.683 29.901c-1.971 0-3.75-0.384-5.338-1.152-1.587-0.794-2.854-1.984-3.802-3.571-0.922-1.587-1.382-3.597-1.382-6.029v-16.589h4.915v16.627c0 2.099 0.499 3.661 1.498 4.685 1.024 1.024 2.432 1.536 4.224 1.536 1.766 0 3.162-0.512 4.186-1.536s1.536-2.586 1.536-4.685v-16.627h4.915v16.589c0 2.432-0.486 4.442-1.459 6.029s-2.278 2.778-3.917 3.571c-1.613 0.768-3.405 1.152-5.376 1.152z"></path>
<path d="M329.604 29.44v-26.88h9.869c2.15 0 3.917 0.371 5.299 1.114 1.408 0.717 2.458 1.702 3.149 2.957 0.691 1.229 1.037 2.598 1.037 4.109 0 1.638-0.435 3.136-1.306 4.493-0.845 1.357-2.176 2.342-3.994 2.957l5.568 11.251h-5.645l-4.992-10.598h-4.070v10.598h-4.915zM334.519 15.232h4.646c1.638 0 2.842-0.397 3.61-1.19s1.152-1.843 1.152-3.149c0-1.28-0.384-2.304-1.152-3.072-0.742-0.768-1.958-1.152-3.648-1.152h-4.608v8.563z"></path>
<path d="M354.682 29.44v-26.88h17.549v3.955h-12.634v7.373h11.482v3.84h-11.482v7.757h12.634v3.955h-17.549z"></path>
<path d="M387.211 29.901c-1.971 0-3.712-0.333-5.222-0.998-1.51-0.691-2.701-1.664-3.571-2.918-0.87-1.28-1.318-2.829-1.344-4.646h5.184c0.051 1.254 0.499 2.317 1.344 3.187 0.87 0.845 2.061 1.267 3.571 1.267 1.306 0 2.342-0.307 3.11-0.922 0.768-0.64 1.152-1.485 1.152-2.534 0-1.101-0.346-1.958-1.037-2.573-0.666-0.614-1.562-1.114-2.688-1.498s-2.33-0.794-3.61-1.229c-2.074-0.717-3.661-1.638-4.762-2.765-1.075-1.126-1.613-2.624-1.613-4.493-0.026-1.587 0.346-2.944 1.114-4.070 0.794-1.152 1.869-2.035 3.226-2.65 1.357-0.64 2.918-0.96 4.685-0.96 1.792 0 3.366 0.32 4.723 0.96 1.382 0.64 2.458 1.536 3.226 2.688 0.794 1.152 1.216 2.522 1.267 4.109h-5.261c-0.026-0.947-0.397-1.779-1.114-2.496-0.691-0.742-1.664-1.114-2.918-1.114-1.075-0.026-1.984 0.243-2.726 0.806-0.717 0.538-1.075 1.331-1.075 2.381 0 0.896 0.282 1.613 0.845 2.15 0.563 0.512 1.331 0.947 2.304 1.306s2.086 0.742 3.341 1.152c1.331 0.461 2.547 0.998 3.648 1.613s1.984 1.434 2.65 2.458c0.666 0.998 0.998 2.291 0.998 3.878 0 1.408-0.358 2.714-1.075 3.917s-1.779 2.176-3.187 2.918c-1.408 0.717-3.136 1.075-5.184 1.075z"></path>
</symbol>
</defs>
</svg>
